<?xml version="1.0" encoding="utf-8"?>
<!-- Generator: Adobe Illustrator 29.6.0, SVG Export Plug-In . SVG Version: 9.03 Build 0)  -->
<svg version="1.1" xmlns="http://www.w3.org/2000/svg" xmlns:xlink="http://www.w3.org/1999/xlink" x="0px" y="0px"
	 viewBox="0 0 1024 1024" style="enable-background:new 0 0 1024 1024;" xml:space="preserve">
<g id="Background">
	<g>
		<rect style="fill:#FDF4E3;" width="1024" height="1024"/>
	</g>
</g>
<g id="_x31___x2013__Layer">
	<g>
		<polygon style="fill:#7195BC;" points="904.5770874,358.7561646 683.2922363,527.826355 606.2421265,445.2433472 		"/>
	</g>
	<g>
		<polygon style="fill:#7195BC;" points="444.9311218,466.1401367 379.7193604,547.93396 379.6522522,548.0178833 
			119.4267731,466.1401367 		"/>
	</g>
</g>
<g id="_x32___x2013__Layer_00000112633122588780081100000015240438280291530678_">
	<g>
		<polygon style="fill:#EA5E5E;" points="533.5172119,596.4376831 395.1428223,552.8960571 379.6522522,548.0178833 
			444.9311218,466.1401367 523.7359009,367.285675 524.0130005,373.7506714 		"/>
	</g>
	<g>
		<polygon style="fill:#EA5E5E;" points="683.293396,527.8256226 646.0907593,556.2544556 576.0093994,609.8041382 
			533.5172119,596.4376831 533.5172119,367.285675 606.2434082,445.2425842 		"/>
	</g>
	<g>
		<polygon style="fill:#A04D4D;" points="533.5172119,367.285675 533.5172119,596.4376831 524.0130005,373.7506714 		"/>
	</g>
</g>
<g id="_x33___x2013__Layer_00000030474224416160081690000000942096433742053786_">
	<g>
		<polygon style="fill:#FFBE4A;" points="904.5753784,358.7546387 576.0061646,609.8043213 733.8900757,657.4539795 		"/>
	</g>
	<g>
		<polygon style="fill:#E8A543;" points="576.0061646,609.8043213 313.5774536,723.5945435 733.8900757,657.4539795 		"/>
	</g>
	<g>
		<polygon style="fill:#FFBE4A;" points="119.4228897,466.144165 576.0061646,609.8043213 313.5774536,723.5945435 		"/>
	</g>
</g>
<g id="App_Icon_Shape">
	<path style="fill:#606060;" d="M0,0v1024h1024V0H0z M1023.999939,650.999939
		c0,14.2427368,0.0059204,28.4832153-0.0840454,42.7259521c-0.0689087,11.9963989-0.2072754,23.9901733-0.5323486,35.9829712
		c-0.708313,26.133606-2.24646,52.4940796-6.8920898,78.3375854c-4.7127686,26.2171631-12.4039917,50.6175537-24.5288696,74.4379272
		c-11.9170532,23.4121094-27.4890137,44.8369751-46.0651245,63.4130859s-40.0009766,34.1480713-63.4130859,46.0651245
		c-23.8203735,12.1248779-48.2207031,19.81604-74.4379272,24.5288696
		c-25.8434448,4.6456299-52.2039795,6.1837769-78.3375854,6.8920898
		c-11.9927979,0.3250732-23.9865723,0.4634399-35.9829102,0.5323486
		c-14.2427368,0.0899658-28.4832153,0.0839844-42.7259521,0.0839844H373c-14.2427368,0-28.4832153,0.0059814-42.7259521-0.0839844
		c-11.9963379-0.0689087-23.9901123-0.2072754-35.9829102-0.5323486c-26.133606-0.708313-52.4941406-2.24646-78.3375854-6.8920898
		c-26.2172241-4.7128296-50.6175537-12.4039917-74.4379272-24.5288696
		c-23.4121094-11.9170532-44.8369751-27.4890137-63.4130859-46.0651245s-34.1480713-40.0009766-46.0651245-63.4130859
		c-12.1248779-23.8203735-19.8161011-48.2207642-24.5288696-74.4379272
		c-4.6456299-25.8435059-6.1837769-52.2039795-6.8920898-78.3375854
		c-0.3250732-11.9927979-0.4634399-23.9865723-0.5323486-35.9829712
		c-0.0900269-14.2427368-0.0840454-28.4832153-0.0840454-42.7259521V373c0-14.2427368-0.0059814-28.4832153,0.0840454-42.7259521
		c0.0689087-11.9963379,0.2072754-23.9901733,0.5323486-35.9829102c0.708313-26.133606,2.24646-52.4941406,6.8920898-78.3375854
		c4.7127686-26.2172241,12.4039917-50.6175537,24.5288696-74.4379883
		c11.9170532-23.4120483,27.4890137-44.8369141,46.0651245-63.4130249s40.0009766-34.1480713,63.4130859-46.0651245
		c23.8203735-12.124939,48.2207031-19.8161011,74.4379272-24.5288696
		c25.8434448-4.6456909,52.2039795-6.1837769,78.3375854-6.8921509c11.9927979-0.3250122,23.9865723-0.4633789,35.9829102-0.5323486
		C344.5167847-0.0059204,358.7572632,0.000061,373,0.000061h278c14.2427368,0,28.4832153-0.0059814,42.7259521,0.0839844
		c11.9963379,0.0689697,23.9901123,0.2073364,35.9829102,0.5323486c26.133606,0.708374,52.4941406,2.24646,78.3375854,6.8921509
		c26.2172241,4.7127686,50.6175537,12.4039307,74.4379272,24.5288696
		c23.4121094,11.9170532,44.8369751,27.4890137,63.4130859,46.0651245s34.1480713,40.0009766,46.0651245,63.4130249
		c12.1248779,23.8204346,19.8161011,48.2207642,24.5288696,74.4379883
		c4.6456299,25.8434448,6.1837769,52.2039795,6.8920898,78.3375854c0.3250732,11.9927368,0.4634399,23.9865723,0.5323486,35.9829102
		c0.0899658,14.2427368,0.0840454,28.4832153,0.0840454,42.7259521V650.999939z"/>
	<g>
		<g>
			<rect x="-294.1642151" y="174.3441315" style="fill:#FDF4E3;" width="125.3644562" height="125.3644562"/>
		</g>
		<g>
			<rect x="-294.1642151" y="357.6598816" style="fill:#FEB21A;" width="125.3644562" height="125.3644562"/>
		</g>
		<g>
			<rect x="-294.1642151" y="540.975647" style="fill:#ED3F27;" width="125.3644562" height="125.3644562"/>
		</g>
		<g>
			<rect x="-294.1642151" y="724.2914429" style="fill:#134686;" width="125.3644562" height="125.3644562"/>
		</g>
	</g>
</g>
<g id="Grid" style="display:none;">
	<g id="ROUNDED_RECTANGLE" style="display:inline;">
	</g>
	<g id="SUBDIVISIONS" style="display:inline;">
		<g>
			
				<line style="fill:none;stroke:#5DB3F9;stroke-width:1.5;stroke-miterlimit:10;" x1="1024" y1="-0.0000009" x2="0.0000004" y2="1024"/>
		</g>
		<g>
			
				<line style="fill:none;stroke:#5DB3F9;stroke-width:1.5;stroke-miterlimit:10;" x1="1024" y1="1024" x2="0.0000004" y2="-0.000001"/>
		</g>
		<g>
			<line style="fill:none;stroke:#5DB3F9;stroke-width:1.5;stroke-miterlimit:10;" x1="512" y1="-0.000001" x2="512" y2="1024"/>
		</g>
		<g>
			<line style="fill:none;stroke:#5DB3F9;stroke-width:1.5;stroke-miterlimit:10;" x1="1024" y1="512" x2="0" y2="512"/>
		</g>
		<g>
			<line style="fill:none;stroke:#5DB3F9;stroke-width:1.5;stroke-miterlimit:10;" x1="512" y1="-0.000001" x2="512" y2="1024"/>
		</g>
		<g>
			<line style="fill:none;stroke:#5DB3F9;stroke-width:1.5;stroke-miterlimit:10;" x1="1024" y1="512" x2="0.0000003" y2="512"/>
		</g>
		<g>
			<line style="fill:none;stroke:#5DB3F9;stroke-width:1.5;stroke-miterlimit:10;" x1="1024" y1="640" x2="0.0000003" y2="640"/>
		</g>
		<g>
			<line style="fill:none;stroke:#5DB3F9;stroke-width:1.5;stroke-miterlimit:10;" x1="1024" y1="768" x2="0.0000003" y2="768"/>
		</g>
		<g>
			<line style="fill:none;stroke:#5DB3F9;stroke-width:1.5;stroke-miterlimit:10;" x1="1024" y1="896" x2="0.0000003" y2="896"/>
		</g>
		<g>
			<line style="fill:none;stroke:#5DB3F9;stroke-width:1.5;stroke-miterlimit:10;" x1="1024" y1="384" x2="0.0000003" y2="384"/>
		</g>
		<g>
			<line style="fill:none;stroke:#5DB3F9;stroke-width:1.5;stroke-miterlimit:10;" x1="1024" y1="256" x2="0.0000003" y2="256"/>
		</g>
		<g>
			<line style="fill:none;stroke:#5DB3F9;stroke-width:1.5;stroke-miterlimit:10;" x1="1024" y1="128" x2="0.0000003" y2="128"/>
		</g>
		<g>
			<line style="fill:none;stroke:#5DB3F9;stroke-width:1.5;stroke-miterlimit:10;" x1="512" y1="1024" x2="512" y2="-0.0000037"/>
		</g>
		<g>
			<line style="fill:none;stroke:#5DB3F9;stroke-width:1.5;stroke-miterlimit:10;" x1="512" y1="1024" x2="512" y2="-0.0000034"/>
		</g>
		<g>
			<line style="fill:none;stroke:#5DB3F9;stroke-width:1.5;stroke-miterlimit:10;" x1="384" y1="1024" x2="384" y2="-0.0000034"/>
		</g>
		<g>
			<line style="fill:none;stroke:#5DB3F9;stroke-width:1.5;stroke-miterlimit:10;" x1="256" y1="1024" x2="256" y2="-0.0000034"/>
		</g>
		<g>
			<line style="fill:none;stroke:#5DB3F9;stroke-width:1.5;stroke-miterlimit:10;" x1="128" y1="1024" x2="128" y2="-0.0000034"/>
		</g>
		<g>
			<line style="fill:none;stroke:#5DB3F9;stroke-width:1.5;stroke-miterlimit:10;" x1="640" y1="1024" x2="640" y2="-0.0000034"/>
		</g>
		<g>
			<line style="fill:none;stroke:#5DB3F9;stroke-width:1.5;stroke-miterlimit:10;" x1="768" y1="1024" x2="768" y2="-0.0000034"/>
		</g>
		<g>
			<line style="fill:none;stroke:#5DB3F9;stroke-width:1.5;stroke-miterlimit:10;" x1="896" y1="1024" x2="896" y2="-0.0000034"/>
		</g>
	</g>
	<g id="CIRCLES" style="display:inline;">
		
			<circle style="fill-rule:evenodd;clip-rule:evenodd;fill:none;stroke:#5DB3F9;stroke-width:1.5;stroke-miterlimit:10;" cx="512" cy="512" r="410"/>
		
			<circle style="fill-rule:evenodd;clip-rule:evenodd;fill:none;stroke:#5DB3F9;stroke-width:1.5;stroke-miterlimit:10;" cx="512" cy="512" r="256"/>
		
			<circle style="fill-rule:evenodd;clip-rule:evenodd;fill:none;stroke:#5DB3F9;stroke-width:1.5;stroke-miterlimit:10;" cx="512" cy="512" r="102"/>
	</g>
</g>
</svg>
