<?xml version="1.0" encoding="UTF-8"?>
<svg id="Layer_1" xmlns="http://www.w3.org/2000/svg" version="1.1" viewBox="0 0 20 20">
  <!-- Generator: Adobe Illustrator 29.6.0, SVG Export Plug-In . SVG Version: 2.1.1 Build 207)  -->
  <defs>
    <style>
      .st0 {
        fill: #fff;
        fill-opacity: .9;
      }
    </style>
  </defs>
  <path class="st0" d="M0,5.7c0,.4.4.8.8.8s.8-.4.8-.8v-1.9c0-1.3.8-2.1,2.1-2.1h2c.4,0,.8-.4.8-.8S6.1,0,5.7,0h-2C1.4,0,0,1.4,0,3.7v1.9Z"/>
  <path class="st0" d="M20,5.7v-1.9C20,1.4,18.6,0,16.3,0h-2c-.4,0-.8.4-.8.8s.4.8.8.8h2c1.3,0,2.1.8,2.1,2.1v1.9c0,.4.4.8.8.8s.8-.4.8-.8Z"/>
  <path class="st0" d="M0,14.3v1.9c0,2.3,1.4,3.7,3.7,3.7h2c.4,0,.8-.4.8-.8s-.4-.8-.8-.8h-2c-1.3,0-2.1-.8-2.1-2.1v-1.9c0-.4-.4-.8-.8-.8s-.8.4-.8.8Z"/>
  <path class="st0" d="M20,14.3c0-.4-.4-.8-.8-.8s-.8.4-.8.8v1.9c0,1.3-.8,2.1-2.1,2.1h-2c-.4,0-.8.4-.8.8s.4.8.8.8h2c2.3,0,3.7-1.4,3.7-3.7v-1.9Z"/>
  <path class="st0" d="M15.2,11.2c-.3-.4-.9-.5-1.3-.2l-2.8,2V4.4c0-.5-.4-.9-.9-.9s-.9.4-.9.9v8.6l-2.8-2c-.4-.3-1-.2-1.3.2-.3.4-.2,1,.2,1.3l4.3,3.1s0,0,.1,0c0,0,0,0,.1,0,.1,0,.2,0,.3,0s.2,0,.3,0c0,0,0,0,.1,0,0,0,0,0,.1,0l4.3-3.1c.4-.3.5-.9.2-1.3Z"/>
</svg>